<?xml version="1.0" encoding="utf-8"?>
<!-- Generator: Adobe Illustrator 24.1.2, SVG Export Plug-In . SVG Version: 6.00 Build 0)  -->
<svg version="1.1" id="Layer_1" xmlns="http://www.w3.org/2000/svg" xmlns:xlink="http://www.w3.org/1999/xlink" x="0px" y="0px"
	 viewBox="0 0 413.2 224" style="enable-background:new 0 0 413.2 224;" xml:space="preserve">
<style type="text/css">
	.st0{fill:#FF1493;}
	.st1{fill:#FFFFFF;}
</style>
<g id="Layer_2_1_">
	<g>
		<path class="st0" d="M0,214c0,5.5,4.5,10,10,10h279.5c5.5,0,10-4.5,10-10V10c0-5.5-4.5-10-10-10H10C4.5,0,0,4.5,0,10V214z"/>
	</g>
	<polygon class="st0" points="413.2,204.6 310.9,142.6 310.9,80.6 413.2,18.6 	"/>
</g>
<g id="Capa_1">
	<g>
		<g id="Artwork_51_">
			<g id="Layer_5_51_">
				<path class="st1" d="M270.9,91.3c-26.1-11.3-51.2-53.7-76.5-53.7s-31.3,12-48.2,12s-22.9-12-48.2-12S45.7,83,22.3,92.2
					c-1.8,0.7,0.9,3.2,5.6,8.5c21.6,24.5,34.7,89.5,118.2,89.5c85.9,0,101.6-71.5,120.8-92.8C270.3,93.5,272,91.8,270.9,91.3z
					 M197.4,108c-8.4,3.3-25.2,22.9-50.9,22.9c-27.8,0-41.9-18.6-51.3-22.9c-0.2-0.1-0.3-0.7,0-0.8c5.2-2.3,16.1-10.3,27.3-10.3
					s15.4,3,22.9,3s14-3,25.2-3s22.1,8,27.3,10.3C198.1,107.3,197.9,107.8,197.4,108z"/>
			</g>
		</g>
	</g>
</g>
</svg>
